<svg xmlns="http://www.w3.org/2000/svg" width="559.227" height="656.565" viewBox="0 0 559.227 656.565"><path fill="#FFF" stroke="#000" stroke-width="6" stroke-linecap="round" stroke-linejoin="round" stroke-miterlimit="10" d="M115.612 355.432c-13.378 1.876-28.958 5.754-37.066 10.684-7.337 4.463-6.374 17.6-1.154 24.099 5.509 6.862 11.974 6.495 19.779 2.905 5.123-2.357 11.293-7.609 17.667-13.492.16-5.126.339-10.256.543-15.375.121-3.039.196-5.975.231-8.821zM499.977 361.616c-7.5-4.56-21.389-8.217-34.018-10.226.316 6.816.751 14.31 1.339 22.763.106 1.527.211 3.033.313 4.529 4.959 4.379 9.68 8.068 13.74 9.937 7.807 3.591 14.27 3.958 19.779-2.904 5.221-6.499 6.184-19.638-1.153-24.099zM125.43 629.265c-9.854 17.521 15.9 31.951 29.25 19.801 10.908-9.928 19.518-18.348 38.256-21.098-14.35-5.906-27-13.281-37.752-21.871-13.117 5.129-23.736 12.469-29.754 23.168zM424.005 644.267c11.037 14.283 38.46 1.312 30.443-17.121-5.267-12.111-15.218-22.156-27.677-28.195-8.158 7.618-17.849 14.689-29.308 20.867 12.68 6.005 18.892 14.549 26.542 24.449z"/><path fill="none" stroke="#000" stroke-width="6" stroke-linecap="round" stroke-linejoin="round" stroke-miterlimit="10" d="M75.308 386.816c3.333-2.397 5.688-4.991 11.784-8.097M503.215 382.316c-3.333-2.397-5.688-4.991-11.783-8.097M131.13 648.991c.9-4.951 3.6-13.275 11.7-20.476M446.31 647.382c-.026-5.031-1.304-15.266-8.866-22.195"/><path fill="#D0B698" stroke="#000" stroke-width="6" stroke-linecap="round" stroke-linejoin="round" stroke-miterlimit="10" d="M111.331 138.898c0-6.969 5.641-12.618 12.6-12.618 4.081 0 7.697 1.951 10 4.964 5.569-9.111 12.283-16.97 19.913-23.729-3.78-3.658-9.922-6.33-19.563-7.625-31.05-4.174-46.917 11.166-50.542 31.725-3.498 19.838 7.171 41.143 31.004 46.682 2.46-9.685 5.474-18.569 8.95-26.793-6.848-.129-12.362-5.718-12.362-12.606z"/><path d="M123.931 126.28c-6.959 0-12.6 5.649-12.6 12.618 0 6.888 5.514 12.477 12.362 12.605a170.023 170.023 0 0 1 8.112-16.638c.687-1.231 1.4-2.434 2.126-3.622-2.303-3.012-5.92-4.963-10-4.963z"/><path fill="#D0B698" stroke="#000" stroke-width="6" stroke-linecap="round" stroke-linejoin="round" stroke-miterlimit="10" d="M484.238 123.515c-3.625-20.56-19.492-35.899-50.541-31.725-10.765 1.447-17.166 4.61-20.789 8.945 6.867 5.93 13.257 12.745 19.272 20.518.292.377.57.758.857 1.136 2.296-3.095 5.963-5.109 10.108-5.109 6.959 0 12.6 5.649 12.6 12.618 0 6.109-4.335 11.202-10.093 12.366 4.277 8.283 7.745 17.199 10.521 27.142 21.764-6.551 31.417-26.89 28.065-45.891z"/><path d="M455.746 129.898c0-6.969-5.641-12.618-12.6-12.618-4.146 0-7.812 2.014-10.108 5.109 4.815 6.345 9.007 12.886 12.615 19.875 5.758-1.164 10.093-6.257 10.093-12.366z"/><path fill="#D0B698" stroke="#000" stroke-width="6" stroke-linecap="round" stroke-linejoin="round" stroke-miterlimit="10" d="M433.038 122.389c-.287-.378-.565-.759-.857-1.136-6.016-7.773-12.405-14.588-19.272-20.518-29.797-25.728-68.582-34.79-124.728-33.123-48.682 1.447-100.473 9.906-134.337 39.903-7.63 6.758-14.343 14.617-19.913 23.729a106.137 106.137 0 0 0-2.126 3.622 169.913 169.913 0 0 0-8.112 16.638c-3.476 8.224-6.49 17.108-8.95 26.793-4.767 18.77-7.463 40.533-7.462 66.257.002 45.133 8.866 67.528 8.332 110.879-.035 2.846-.11 5.782-.231 8.821-.204 5.119-.383 10.249-.543 15.375-1.653 53.107-1.062 105.862-1.499 142.036-.401 33.204 14.646 62.704 41.845 84.433 10.752 8.59 23.402 15.965 37.752 21.871 25.113 10.337 55.418 16.186 89.844 16.186 50.265 0 87.456-9.652 114.684-24.336 11.459-6.178 21.149-13.249 29.308-20.867 20.359-19.008 31.17-41.422 36.009-61.896 11.47-48.523 9.966-84.08 4.831-158.371l-.313-4.529a990.863 990.863 0 0 1-1.339-22.763c-1.733-37.343.064-54.317-.479-96.937-.463-36.271-3.195-63.161-9.306-85.047-2.776-9.942-6.244-18.858-10.521-27.142-3.61-6.992-7.801-13.534-12.617-19.878z"/><ellipse fill="#FFF" stroke="#000" stroke-width="6" stroke-linecap="round" stroke-linejoin="round" stroke-miterlimit="10" cx="214.38" cy="156.016" rx="54.9" ry="53.1"/><circle cx="185.581" cy="158.715" r="18.9"/><circle fill="#FFF" cx="193.68" cy="163.215" r="5.4"/><ellipse fill="#FFF" stroke="#000" stroke-width="6" stroke-linecap="round" stroke-linejoin="round" stroke-miterlimit="10" cx="352.081" cy="149.715" rx="54.9" ry="53.1"/><circle cx="323.281" cy="152.416" r="18.9"/><circle fill="#FFF" cx="331.38" cy="156.916" r="5.4"/><path fill="#FFF" stroke="#000" stroke-width="6" stroke-linecap="round" stroke-linejoin="round" stroke-miterlimit="10" d="M285.228 234.764c-10.784.188-12.401 4.999-21.685 6.657-.328 5.727-.745 13.566-1.163 22.896-.9 20.1 24.6 15.6 24.6 3.6v-33.132a31.324 31.324 0 0 0-1.752-.021zM286.98 267.916c0 12 25.5 16.5 24.6-3.6-.429-9.582-.857-17.59-1.189-23.353-11.689-.533-13.115-5.813-23.411-6.179v33.132z"/><path fill="#AC967B" stroke="#000" stroke-width="6" stroke-linecap="round" stroke-linejoin="round" stroke-miterlimit="10" d="M324.934 214.718c-4.354-4.685-9.521-7.238-16.425-8.471-3.664 5.366-12.791 9.169-23.479 9.169-10.278 0-19.112-3.518-23.034-8.56-7.391 1.417-12.753 4.185-17.15 9.26-8.627 9.959-4.437 24.891 7.156 25.695 4.957.344 8.624.131 11.541-.391 9.284-1.658 10.901-6.469 21.685-6.657a33.4 33.4 0 0 1 1.752.02c10.295.366 11.721 5.646 23.411 6.179 2.312.105 5.024.026 8.289-.316 11.558-1.208 15.224-16.276 6.254-25.928z"/><path d="M285.03 215.416c10.688 0 19.814-3.803 23.479-9.169 1.107-1.622 1.722-3.385 1.722-5.231 0-7.953-11.281-14.4-25.2-14.4-13.917 0-25.2 6.447-25.2 14.4 0 2.08.778 4.054 2.166 5.84 3.921 5.041 12.755 8.56 23.033 8.56z"/><g><path fill="none" stroke="#000" stroke-width="4" stroke-linecap="round" stroke-linejoin="round" stroke-miterlimit="10" d="M534.104 301.255c3.262-1.237 9.787-3.938 12.037-4.837M532.979 293.718c5.764-2.363 21.654-9.915 24.074-.562 1.951 7.537-13.1 11.927-20.699 15.525"/><path fill="#9A5D28" stroke="#000" stroke-width="6" stroke-linecap="round" stroke-linejoin="round" stroke-miterlimit="10" d="M127.301 200.344c-9.688.129-16.489-2.016-21.206-5.297-4.106 11.89-5.075 18.601-4.215 28.921.937 11.242 6.6 26.849 5.4 43.65-.516 7.225-5.807 22.05-11.003 31.05-5.197 9-2.947 13.05-15.547 13.95s-23.4-.9-33.3 3.15-19.35.45-20.7-2.7c-1.35-3.15-2.003-10.305-3.6-18-1.102-5.312-3.693-10.994-8.1-13.05-2.347-1.095-2.355 6.01-4.5 7.65-2.55 1.95-9.493.9-6.997 7.65s13.296 25.65 25.446 29.7 14.85-.45 25.65-3.15c10.8-2.7 30.193 3.6 41.647-3.6 11.453-7.2 18.653-.45 29.453-9.45s18.332-15.047 23.972-26.211c4.237-8.386-7.535-23.715 4.919-51.753-12.163-7.928-21.974-19.754-27.319-32.51zM531.479 294.618s-10.871 9.182-15 15.6c-4.213 6.55-10.5 18-20.1 11.7-11.344-7.444-4.852-6.211-23.4-16.2-19.5-10.5-10.199-19.5-7.5-24.9s10.199-19.152 10.205-35.399c.006-19.652-3.293-19.973-5.406-23.101-2.123-3.144-4.592-1.856-3.299-13.5 1.342-12.088 1.275-23.245 1.221-26.454-4.729 7.539-14.178 10.599-28.609 12.035-2.518 7.217-5.969 13.348-9.975 18.526-1.711 10.397-.807 26.077 5.863 37.292 5.871 9.869-.123 26.583-1.5 32.4-2.77 11.693-7.801 20.4 5.893 28.8 14.721 9.031 30.707 17.4 37.908 21.6 7.199 4.2 21.6 3.9 26.699 7.2 3.836 2.482 13.199-3.3 15-9.9 1.207-4.427 4.199-15 16.199-20.7-1.798-6.899-4.199-14.999-4.199-14.999zM159.479 104.718c31.95-19.35 91.35-23.845 117.45-23.85 84.601-.016 113.876 7.626 134.907 23.64 21.906 16.681 32.93 45.5 32.066 66.578 4.094-.425 7.695-.987 11-1.805-.201-31.302-17.109-60.159-40.725-73.788 9.926-2.544 18.246-4.586 29.779-5.29-1.334-4.254-2.178-8.436-5.029-14.286-3.807-7.813-16.648-13.95-24.75-19.8-8.1-5.85-20.699-22.95-32.398-28.35-11.701-5.4-37.801-13.95-51.836-19.8-14.033-5.85-44.015-4.5-55.277-4.95-11.263-.45-35.538 7.65-49.488 10.8-13.95 3.15-25.65 12.15-31.5 14.4s-13.95 12.6-18 18.9c-4.05 6.3-15.3 7.65-21.6 14.4s-11.25 8.55-17.55 13.05c-6.3 4.5-9 11.7-12.6 23.162 8.43 1.108 16.011 2.354 24.369 5.188-24.188 17.255-35.916 40.917-36.011 74.751 3.598 1.135 7.147 1.907 10.494 1.96-2.061-42.029 20.152-64.888 36.699-74.91z"/><path fill="#9A5D28" stroke="#000" stroke-width="6" stroke-linecap="round" stroke-linejoin="round" stroke-miterlimit="10" d="M123.03 183.468a115.667 115.667 0 0 1-.248-3.839c-3.347-.053-6.896-.825-10.494-1.96-5.322-1.679-10.753-4.161-15.808-6.351-.829 6.684.451 17.355 9.615 23.729 4.717 3.281 11.519 5.426 21.206 5.297-2.319-5.532-3.808-11.237-4.271-16.876zM471.485 161.096c-5.285 4.22-10.41 6.657-16.582 8.185-3.305.818-6.906 1.379-11 1.805-.01.227-.012.458-.023.683-.457 8.515-1.984 16.025-4.289 22.631 14.432-1.437 23.881-4.497 28.609-12.035 3.082-4.918 4.162-11.737 3.285-21.269z"/><path fill="none" stroke="#000" stroke-width="6" stroke-linecap="round" stroke-linejoin="round" stroke-miterlimit="10" d="M272.879 3c1.35 10.818 3.6 25.218 3.6 35.118s-.9 30.15.45 42.75M152.619 63.019c.111 7.291 3.192 32.953 6.792 41.741M414.179 56.118c-3.148 6.3-10.08 24.894-15.973 39.955"/><path fill="none" d="M387.741 104.904c-36.486-18.777-75.744-6.753-88.07 23.643-6.766 16.679-3.91 34.076 4.867 48.693 6.455 10.75 16.109 20.001 27.527 26.342 17.92 9.953 65.289 14.186 84.822-17.435 2.449-3.965 4.291-8.358 5.506-13.003 6.016-22.974-3.619-52.269-34.652-68.24zM178.381 110.304c-32.978 16.971-41.796 48.991-33.342 72.479 1.11 3.084 2.505 6.028 4.195 8.764 19.534 31.621 66.903 27.388 84.823 17.435 12.806-7.112 23.4-17.88 29.741-30.326 6.999-13.738 8.813-29.522 2.654-44.709-12.327-30.397-51.585-42.42-88.071-23.643z"/><path fill="#9A5D28" stroke="#000" stroke-width="6" stroke-linecap="round" stroke-linejoin="round" stroke-miterlimit="10" d="M411.837 104.508c-21.031-16.014-50.307-23.656-134.907-23.64-26.1.005-85.5 4.5-117.45 23.85-16.547 10.021-38.761 32.881-36.698 74.911.062 1.264.141 2.541.248 3.839.463 5.639 1.953 11.343 4.271 16.875 5.345 12.756 15.156 24.583 27.32 32.509 9.516 6.201 20.472 10.015 31.858 10.015 53.41 0 48.034-28.337 73.998-38.623a8.602 8.602 0 0 1-.647-3.229c0-7.953 11.282-14.4 25.2-14.4 13.919 0 25.2 6.447 25.2 14.4a8.47 8.47 0 0 1-.455 2.724c28.641 8.941 13.96 33.729 73.354 33.729 11.596 0 32.455-6.402 46.486-24.543 4.006-5.178 7.457-11.309 9.975-18.526 2.305-6.606 3.832-14.116 4.289-22.631.012-.225.014-.456.023-.683.865-21.078-10.159-49.896-32.065-66.577zm-148.039 74.148c-6.341 12.446-16.935 23.213-29.741 30.326-17.92 9.953-65.289 14.186-84.823-17.435-1.69-2.736-3.085-5.679-4.195-8.764-8.454-23.488.364-55.508 33.342-72.479 36.486-18.777 75.743-6.754 88.071 23.643 6.159 15.187 4.345 30.971-2.654 44.709zm158.596-5.512c-1.215 4.646-3.057 9.038-5.506 13.003-19.533 31.621-66.902 27.388-84.822 17.435-11.418-6.341-21.072-15.591-27.527-26.342-8.777-14.618-11.633-32.014-4.867-48.693 12.326-30.396 51.584-42.42 88.07-23.643 31.032 15.971 40.667 45.266 34.652 68.24z"/></g></svg>